<svg xmlns="http://www.w3.org/2000/svg" xmlns:xlink="http://www.w3.org/1999/xlink" width="1635.641" height="474.313" viewBox="0 0 1635.641 474.313"><defs><style>.a{fill:#14a6e3;}.a,.b,.c,.d,.e,.f{fill-rule:evenodd;}.b{fill:url(#i);}.c{fill:#d4d0d0;}.d{fill:rgba(200,200,200,0.99);}.e{fill:#b7b7b7;}.f{fill:#a8a8a8;}.g{filter:url(#j);}.h{filter:url(#g);}.i{filter:url(#e);}.j{filter:url(#c);}.k{filter:url(#a);}</style><filter id="a" x="504.425" y="98.292" width="304.807" height="361.211" filterUnits="userSpaceOnUse"><feOffset dy="3" input="SourceAlpha"/><feGaussianBlur stdDeviation="1.5" result="b"/><feFlood flood-opacity="0.161"/><feComposite operator="in" in2="b"/><feComposite in="SourceGraphic"/></filter><filter id="c" x="839.58" y="4.5" width="96.254" height="455.005" filterUnits="userSpaceOnUse"><feOffset dy="3" input="SourceAlpha"/><feGaussianBlur stdDeviation="1.5" result="d"/><feFlood flood-opacity="0.161"/><feComposite operator="in" in2="d"/><feComposite in="SourceGraphic"/></filter><filter id="e" x="973.376" y="98.292" width="324.48" height="369.078" filterUnits="userSpaceOnUse"><feOffset dy="3" input="SourceAlpha"/><feGaussianBlur stdDeviation="1.5" result="f"/><feFlood flood-opacity="0.161"/><feComposite operator="in" in2="f"/><feComposite in="SourceGraphic"/></filter><filter id="g" x="1330.832" y="98.292" width="304.809" height="361.211" filterUnits="userSpaceOnUse"><feOffset dy="3" input="SourceAlpha"/><feGaussianBlur stdDeviation="1.5" result="h"/><feFlood flood-opacity="0.161"/><feComposite operator="in" in2="h"/><feComposite in="SourceGraphic"/></filter><linearGradient id="i" x1="0.5" x2="0.5" y2="1" gradientUnits="objectBoundingBox"><stop offset="0" stop-color="#63cfff"/><stop offset="1" stop-color="#0082bb"/></linearGradient><filter id="j" x="0" y="0" width="474.311" height="474.313" filterUnits="userSpaceOnUse"><feOffset dy="3" input="SourceAlpha"/><feGaussianBlur stdDeviation="3" result="k"/><feFlood flood-opacity="0.161"/><feComposite operator="in" in2="k"/><feComposite in="SourceGraphic"/></filter></defs><g transform="translate(882.154 -1420.917)"><g class="k" transform="matrix(1, 0, 0, 1, -882.15, 1420.92)"><path class="a" d="M-435.9,1806.306V1602.325c.66-99.036-47.877-148.23-146.914-148.23S-731.7,1503.289-731.7,1602.325v203.981h88.545V1584.622c.656-36.076,20.33-53.791,59.029-53.791s58.37,17.715,60.338,53.791v178.393c0,27.546,14.433,41.321,43.29,43.291Z" transform="translate(1240.63 -1354.3)"/></g><g class="j" transform="matrix(1, 0, 0, 1, -882.15, 1420.92)"><path class="a" d="M-634.584,1426.917v68.215h87.232v-25.581c.654-28.2-13.116-42.634-41.979-42.634Zm0,99.04v346.965h87.232V1567.933c0-28.2-13.775-41.976-41.979-41.976Z" transform="translate(1478.66 -1420.92)"/></g><g class="i" transform="matrix(1, 0, 0, 1, -882.15, 1420.92)"><path class="a" d="M-438.4,1454.095c-104.94,0-157.409,59.689-157.409,180.375,0,119.363,52.469,179.7,157.409,179.7s158.071-60.34,158.071-179.7c0-120.686-53.126-180.375-158.071-180.375Zm0,76.737c44.6,0,66.9,33.453,66.9,101.011-.657,68.862-22.957,104.283-67.558,104.283s-67.557-34.1-68.207-101.656C-507.265,1565.6-484.316,1530.832-438.4,1530.832Z" transform="translate(1573.69 -1354.3)"/></g><g class="h" transform="matrix(1, 0, 0, 1, -882.15, 1420.92)"><path class="a" d="M-196.432,1806.306V1602.325c.656-99.036-47.882-148.23-146.919-148.23s-148.884,49.194-148.884,148.23v203.981h88.542V1584.622c.657-36.076,20.335-53.791,59.03-53.791s58.375,17.715,60.342,53.791v178.393c0,27.546,14.428,41.321,43.29,43.291Z" transform="translate(1827.57 -1354.3)"/></g><g transform="translate(-873.154 1426.917)"><g class="g" transform="matrix(1, 0, 0, 1, -9, -6)"><path class="b" d="M-644.348,1885.146c145.094,0,228.505-91.788,228.505-227.831,0-134.092-86.214-228.482-228.505-228.482-141.589,0-227.806,93.087-227.806,228.482S-789.444,1885.146-644.348,1885.146Z" transform="translate(881.15 -1422.83)"/></g><g transform="translate(32.816 32.816)"><path class="c" d="M-664.053,1831.467c-107.435,0-194.528-87.1-194.528-194.527s87.093-194.534,194.528-194.534Z" transform="translate(858.581 -1442.406)"/><path class="d" d="M-699.876,1747.01a145.9,145.9,0,0,1-145.9-145.9,145.9,145.9,0,0,1,145.9-145.9Z" transform="translate(894.407 -1406.581)"/><path class="e" d="M-735.707,1662.553a97.267,97.267,0,0,1-97.26-97.27,97.263,97.263,0,0,1,97.26-97.263Z" transform="translate(930.233 -1370.755)"/><path class="f" d="M-771.526,1578.093a48.63,48.63,0,0,1-48.635-48.632,48.63,48.63,0,0,1,48.635-48.634Z" transform="translate(966.057 -1334.934)"/></g></g></g></svg>